<mxfile host="app.diagrams.net" modified="2021-01-08T03:49:30.705Z" agent="5.0 (Windows NT 10.0; WOW64) AppleWebKit/537.36 (KHTML, like Gecko) Chrome/87.0.4280.88 Safari/537.36" etag="e4MVrnfaCoOmrMKNS3N_" version="14.1.8" type="github">
  <diagram id="4IKgftMM5CkpKtV7tetH" name="Page-1">
    <mxGraphModel dx="720" dy="615" grid="1" gridSize="10" guides="1" tooltips="1" connect="1" arrows="1" fold="1" page="1" pageScale="1" pageWidth="827" pageHeight="1169" math="0" shadow="0">
      <root>
        <mxCell id="0" />
        <mxCell id="1" parent="0" />
        <mxCell id="InsGhwm5IBnsXCr6d3m6-1" value="主程序" style="shape=folder;fontStyle=1;spacingTop=10;tabWidth=40;tabHeight=14;tabPosition=left;html=1;" vertex="1" parent="1">
          <mxGeometry x="110" y="110" width="520" height="310" as="geometry" />
        </mxCell>
        <mxCell id="InsGhwm5IBnsXCr6d3m6-2" value="音乐列表" style="shape=folder;fontStyle=1;spacingTop=10;tabWidth=40;tabHeight=14;tabPosition=left;html=1;" vertex="1" parent="1">
          <mxGeometry x="130" y="140" width="200" height="80" as="geometry" />
        </mxCell>
        <mxCell id="InsGhwm5IBnsXCr6d3m6-3" value="艺术家列表&lt;span style=&quot;color: rgba(0 , 0 , 0 , 0) ; font-family: monospace ; font-size: 0px ; font-weight: 400&quot;&gt;%3CmxGraphModel%3E%3Croot%3E%3CmxCell%20id%3D%220%22%2F%3E%3CmxCell%20id%3D%221%22%20parent%3D%220%22%2F%3E%3CmxCell%20id%3D%222%22%20value%3D%22%E9%9F%B3%E4%B9%90%E5%88%97%E8%A1%A8%22%20style%3D%22shape%3Dfolder%3BfontStyle%3D1%3BspacingTop%3D10%3BtabWidth%3D40%3BtabHeight%3D14%3BtabPosition%3Dleft%3Bhtml%3D1%3B%22%20vertex%3D%221%22%20parent%3D%221%22%3E%3CmxGeometry%20x%3D%22130%22%20y%3D%22140%22%20width%3D%22120%22%20height%3D%2280%22%20as%3D%22geometry%22%2F%3E%3C%2FmxCell%3E%3C%2Froot%3E%3C%2FmxGraphModel%3E&lt;/span&gt;" style="shape=folder;fontStyle=1;spacingTop=10;tabWidth=40;tabHeight=14;tabPosition=left;html=1;" vertex="1" parent="1">
          <mxGeometry x="130" y="225" width="200" height="80" as="geometry" />
        </mxCell>
        <mxCell id="InsGhwm5IBnsXCr6d3m6-4" value="专辑列表" style="shape=folder;fontStyle=1;spacingTop=10;tabWidth=40;tabHeight=14;tabPosition=left;html=1;" vertex="1" parent="1">
          <mxGeometry x="130" y="310" width="200" height="80" as="geometry" />
        </mxCell>
        <mxCell id="InsGhwm5IBnsXCr6d3m6-5" value="播放界面" style="shape=folder;fontStyle=1;spacingTop=10;tabWidth=40;tabHeight=14;tabPosition=left;html=1;" vertex="1" parent="1">
          <mxGeometry x="430" y="155" width="170" height="215" as="geometry" />
        </mxCell>
        <mxCell id="InsGhwm5IBnsXCr6d3m6-12" value="&amp;nbsp;" style="endArrow=open;endSize=12;dashed=1;html=1;exitX=0;exitY=0;exitDx=200;exitDy=47;exitPerimeter=0;entryX=-0.001;entryY=0.036;entryDx=0;entryDy=0;entryPerimeter=0;" edge="1" parent="1" source="InsGhwm5IBnsXCr6d3m6-2" target="InsGhwm5IBnsXCr6d3m6-5">
          <mxGeometry x="0.0172" y="-1" width="160" relative="1" as="geometry">
            <mxPoint x="290" y="240" as="sourcePoint" />
            <mxPoint x="450" y="240" as="targetPoint" />
            <mxPoint as="offset" />
          </mxGeometry>
        </mxCell>
        <mxCell id="InsGhwm5IBnsXCr6d3m6-13" value="&amp;nbsp;" style="endArrow=open;endSize=12;dashed=1;html=1;exitX=0;exitY=0;exitDx=200;exitDy=47;exitPerimeter=0;" edge="1" parent="1" source="InsGhwm5IBnsXCr6d3m6-3">
          <mxGeometry width="160" relative="1" as="geometry">
            <mxPoint x="340" y="197" as="sourcePoint" />
            <mxPoint x="429" y="160" as="targetPoint" />
            <Array as="points" />
          </mxGeometry>
        </mxCell>
        <mxCell id="InsGhwm5IBnsXCr6d3m6-14" value="&amp;nbsp;" style="endArrow=open;endSize=12;dashed=1;html=1;exitX=0;exitY=0;exitDx=200;exitDy=47;exitPerimeter=0;entryX=0.004;entryY=0.03;entryDx=0;entryDy=0;entryPerimeter=0;" edge="1" parent="1" source="InsGhwm5IBnsXCr6d3m6-4" target="InsGhwm5IBnsXCr6d3m6-5">
          <mxGeometry width="160" relative="1" as="geometry">
            <mxPoint x="340" y="282" as="sourcePoint" />
            <mxPoint x="430" y="190" as="targetPoint" />
            <Array as="points" />
          </mxGeometry>
        </mxCell>
      </root>
    </mxGraphModel>
  </diagram>
</mxfile>
